<svg xmlns="http://www.w3.org/2000/svg" viewBox="0 0 177.03 41.63"><defs><style>.cls-1{fill:#0c0c0c;}.cls-2{font-size:26.01px;fill:#1092cb;font-family:Quicksand-Medium, Quicksand;font-weight:500;}.cls-3{letter-spacing:-0.02em;}.cls-4,.cls-5,.cls-6{fill:#0d0d0d;}.cls-5{letter-spacing:0em;}.cls-6{letter-spacing:0em;}</style></defs><g id="Layer_2" data-name="Layer 2"><g id="Layer_1-2" data-name="Layer 1"><path class="cls-1" d="M36.84,16a9.38,9.38,0,0,0-1.37-1.65,1.42,1.42,0,0,1-.45-.83,1,1,0,0,0-1.24-.8.74.74,0,0,1-1-.66c-.07-.59-1-1-1.47-.67a.88.88,0,0,1-1.38-.43.67.67,0,0,0-.29-.34.89.89,0,0,0-1.3.12.64.64,0,0,1-1,0,1,1,0,0,0-1.62,0,.83.83,0,0,1-1.24.17c-.34-.25-.64-.07-.95,0a.56.56,0,0,0-.38.62.51.51,0,0,1-.81.44.89.89,0,0,0-1.11,0,.64.64,0,0,0-.36.61c0,.61-.28.79-.86.58a.89.89,0,0,0-1,.65c-.06.5-.34.7-.85.61a.75.75,0,0,0-.94.67.51.51,0,0,1-.44.43c-.32.09-.66.1-1,.2a2.47,2.47,0,0,0-1,.46,1.86,1.86,0,0,1-1.23.49,12.37,12.37,0,0,0-3.35.61c-.48.16-1,.26-1.48.42a1,1,0,0,0-.4.24,12.42,12.42,0,0,0-1,1c-.44.5-.43.63,0,1.13a.54.54,0,0,0,.16.81.47.47,0,0,1,.14.27,1.77,1.77,0,0,0,.79,1.25,8,8,0,0,1,.65.5A.82.82,0,0,1,9,24.2a2.11,2.11,0,0,0-1.25,1.57.52.52,0,0,1-.13.21A1.84,1.84,0,0,0,8,28.84c.37.22.72.45.77.95A.91.91,0,0,0,9.33,29c0-.29,0-.57,0-.86a2.44,2.44,0,0,1,.13-.44h.1l.18.45a2.22,2.22,0,0,0,1.18-1.68l.49.24a1.61,1.61,0,0,1,.47-1.17,1.39,1.39,0,0,0,.21-1.32,5.88,5.88,0,0,1,.82.36c.56.35,1.09.75,1.65,1.1a.77.77,0,0,1,.34.57,5.38,5.38,0,0,1-.37,2.91,15.28,15.28,0,0,0-1,4.28l-.24,1.83h0a10.14,10.14,0,0,0,.1,4.14,20,20,0,0,0,18.06-1.68A3.55,3.55,0,0,1,30,36.17a10.49,10.49,0,0,0-3.42-3.71,7.49,7.49,0,0,1-1.23-1.16,2.23,2.23,0,0,1-.37-.72c-.54-1.33-1.05-2.67-1.59-4-.37-.91-.79-1.79-1.17-2.7a1.13,1.13,0,0,1-.05-.63,5.83,5.83,0,0,0-.31-2.62c-.08-.29-.2-.57-.3-.86a.89.89,0,0,1,.14-.87A10.55,10.55,0,0,1,27.57,15a6.12,6.12,0,0,1,5.33,1,5.81,5.81,0,0,1,2.22,4.09c.09.74.06,1.5.08,2.24v.38a.58.58,0,0,0,.49-.43c.22-.59.4-1.19.57-1.8a5.09,5.09,0,0,0,.11-.71,11.79,11.79,0,0,1,1,4.47l.15,0a2.28,2.28,0,0,0,.27-.51A10.39,10.39,0,0,0,36.84,16Z"/><path class="cls-1" d="M20.82,0A20.79,20.79,0,0,0,4.45,33.65,20,20,0,0,0,6.7,36.09c.3.28.6.55.92.81A20.81,20.81,0,1,0,20.82,0ZM31.49,37.69a20,20,0,1,1,9.29-16.87A19.94,19.94,0,0,1,31.49,37.69Z"/><text class="cls-2" transform="translate(50.01 28.4)">da<tspan class="cls-3" x="31.94" y="0">r</tspan><tspan x="42.12" y="0">cy </tspan><tspan class="cls-4" x="77.75" y="0">ib</tspan><tspan class="cls-5" x="99.63" y="0">e</tspan><tspan class="cls-6" x="114.38" y="0">x</tspan></text></g></g></svg>